<?xml version="1.0" encoding="iso-8859-1"?>
<!-- Generator: Adobe Illustrator 16.0.0, SVG Export Plug-In . SVG Version: 6.00 Build 0)  -->
<!DOCTYPE svg PUBLIC "-//W3C//DTD SVG 1.1//EN" "http://www.w3.org/Graphics/SVG/1.1/DTD/svg11.dtd">
<svg version="1.1" id="Capa_1" xmlns="http://www.w3.org/2000/svg" xmlns:xlink="http://www.w3.org/1999/xlink" x="0px" y="0px"
	 width="100.192px" height="116.834px" viewBox="0 0 100.192 116.834" style="enable-background:new 0 0 100.192 116.834;"
	 xml:space="preserve">
<g>
	<path style="fill:#FFFFFF;" d="M96.348,94.127c-0.317,0.729-0.914,1.301-1.657,1.585L67.054,106.25
		c-6.495,2.486-13.692,2.408-20.131-0.219l-14.719-6.113v-16.91h4.535c5.932,0.007,11.782,1.389,17.091,4.036
		c1.754,0.873,3.686,1.329,5.645,1.331h13.878c1.482,0.009,2.677,1.217,2.668,2.699c-0.007,1.242-0.865,2.317-2.076,2.598
		c-0.234,0.022-0.465,0.07-0.703,0.07H51.884v3.578h21.357c0.038,0,0.074,0,0.111,0l0,0c0.035,0,0.07-0.011,0.107-0.011
		c1.42-0.023,2.821-0.319,4.129-0.873l14.959-6.351c0.713-0.305,1.519-0.305,2.23,0c0.74,0.314,1.322,0.916,1.61,1.667
		C96.693,92.518,96.679,93.373,96.348,94.127L96.348,94.127z M28.626,102.688H17.891V81.219h10.735V102.688L28.626,102.688z
		 M44.728,31.125c0-12.846,10.413-23.258,23.258-23.258c12.846,0,23.258,10.412,23.258,23.258c0,12.845-10.412,23.258-23.258,23.258
		C55.146,54.367,44.742,43.963,44.728,31.125L44.728,31.125z M57.251,75.852c-4.25-0.005-7.911-2.994-8.767-7.156h8.767
		c4.249,0.004,7.911,2.994,8.767,7.156H57.251L57.251,75.852z M78.72,65.117h8.767c-0.855,4.162-4.517,7.151-8.767,7.156h-8.767
		C70.809,68.111,74.47,65.121,78.72,65.117L78.72,65.117z M96.163,86.781c-1.6-0.681-3.408-0.681-5.01,0l-11.6,4.927
		c0.031-0.215,0.052-0.432,0.061-0.649c0-3.458-2.804-6.262-6.262-6.262h-3.578v-8.945h8.945c6.913-0.009,12.515-5.61,12.523-12.523
		c0-0.988-0.801-1.789-1.789-1.789H78.72c-3.369-0.001-6.596,1.361-8.945,3.776v-7.446c14.788-0.988,25.976-13.777,24.987-28.565
		C93.774,14.516,80.984,3.328,66.196,4.316S40.221,18.094,41.209,32.882c0.896,13.411,11.576,24.091,24.987,24.987v11.024
		c-2.35-2.415-5.576-3.777-8.945-3.776H46.517c-0.988,0-1.789,0.801-1.789,1.789c0.009,6.912,5.61,12.515,12.523,12.523h8.945v5.367
		h-6.722c-1.403-0.002-2.788-0.328-4.045-0.953c-5.806-2.896-12.203-4.406-18.69-4.414h-4.535c0-0.988-0.801-1.789-1.79-1.789
		H16.102c-0.988,0-1.789,0.801-1.789,1.789H1.79v3.578h12.523v17.891H1.79v3.578h12.523c0,0.988,0.801,1.789,1.789,1.789h14.313
		c0.988,0,1.79-0.801,1.79-1.789v-0.682l13.357,5.547c7.282,2.971,15.422,3.061,22.768,0.25l27.637-10.536
		c1.638-0.622,2.955-1.878,3.654-3.483c0.725-1.628,0.764-3.479,0.105-5.137C99.084,88.785,97.798,87.465,96.163,86.781
		L96.163,86.781z"/>
	<path style="fill:#FFFFFF;" d="M73.845,25.465c0,0.706,0.572,1.278,1.279,1.278c0.706,0,1.279-0.572,1.279-1.278
		c0-3.643-3.132-6.669-7.205-7.199v-1.205c0-0.707-0.572-1.279-1.279-1.279c-0.705,0-1.277,0.572-1.277,1.279v1.205
		c-4.074,0.53-7.205,3.557-7.205,7.199s3.131,6.668,7.205,7.199v9.42c-2.655-0.467-4.646-2.357-4.646-4.611
		c0-0.707-0.573-1.279-1.279-1.279s-1.279,0.572-1.279,1.279c0,3.642,3.131,6.668,7.205,7.199v1.205
		c0,0.706,0.572,1.277,1.277,1.277c0.707,0,1.279-0.571,1.279-1.277v-1.205c4.073-0.531,7.205-3.558,7.205-7.199
		c0-3.644-3.132-6.67-7.205-7.2v-9.42C71.854,21.32,73.845,23.209,73.845,25.465z M61.995,25.465c0-2.256,1.991-4.145,4.646-4.612
		v9.226C63.986,29.609,61.995,27.72,61.995,25.465z M73.845,37.471c0,2.256-1.991,4.146-4.646,4.613v-9.225
		C71.854,33.326,73.845,35.217,73.845,37.471z"/>
	<path style="fill:#FFFFFF;" d="M23.258,99.109L23.258,99.109c-0.988,0-1.789-0.801-1.789-1.789l0,0
		c0-0.988,0.801-1.789,1.789-1.789l0,0c0.988,0,1.789,0.801,1.789,1.789l0,0C25.047,98.309,24.246,99.109,23.258,99.109z"/>
	<path style="fill:#FFFFFF;" d="M1.79,83.017L1.79,83.017c-0.988,0-1.79-0.801-1.79-1.789l0,0c0-0.988,0.801-1.789,1.79-1.789l0,0
		c0.988,0,1.789,0.801,1.789,1.789l0,0C3.578,82.216,2.777,83.017,1.79,83.017z"/>
	<path style="fill:#FFFFFF;" d="M1.79,104.481L1.79,104.481c-0.988,0-1.79-0.801-1.79-1.788l0,0c0-0.988,0.801-1.789,1.79-1.789l0,0
		c0.988,0,1.789,0.801,1.789,1.789l0,0C3.578,103.681,2.777,104.481,1.79,104.481z"/>
	<path style="fill:#FFFFFF;" d="M51.949,97.336L51.949,97.336c-0.988,0-1.789-0.801-1.789-1.789l0,0
		c0-0.988,0.801-1.789,1.789-1.789l0,0c0.988,0,1.789,0.801,1.789,1.789l0,0C53.738,96.535,52.938,97.336,51.949,97.336z"/>
</g>
</svg>
